<svg xmlns="http://www.w3.org/2000/svg" width="813.72" height="104.12" viewBox="0 0 813.72 104.12"><title>DreamCraft - Logo (Dark)</title><path d="M122.85,5.55c-6.47,0-13-.2-19.56-.16a.53.53,0,0,0-.09,1.06c23.54,4.05,44.57,21.81,44.56,47.33s-21,43.38-44.6,47.41a.62.62,0,0,0,.09,1.23c22.4.79,46.4-1.07,60.11-21.36C185,49,161,5.55,122.85,5.55Z" fill="#f9c943"/><path d="M180.93,42.35h20.71V51h.23s6.55-10.41,18.37-10.41a24.86,24.86,0,0,1,13.1,3.74l-8.66,17.55s-3.86-3.28-10.76-3.28c-10.76,0-12.28,10.65-12.28,12.17v31.59H180.93Z" fill="#003d74"/><path d="M255.69,75.22c0,9.24,7.72,12.4,13,12.4,6.67,0,9.59-1.29,14.62-6.67l15,7.49c-6.79,11.35-17.78,15.68-31.12,15.68-18.13,0-33-14.27-33-31.7s14.86-31.82,33-31.82,32.17,10.76,32.17,31.82a21.69,21.69,0,0,1-.12,2.81Zm23.4-11.46c-.94-6.32-5.26-9.71-11.35-9.71-7.14,0-11.11,4.21-11.46,9.71Z" fill="#003d74"/><path d="M334,40.59c8.07,0,14.74,2.69,19.65,7.49V42.35h20.71v60H353.84V95.58h-.23A26.58,26.58,0,0,1,334,104.12c-17.55,0-29.83-14.16-29.83-31.7S316.41,40.59,334,40.59Zm6.2,45.86c8.07,0,13.92-5.85,13.92-14a14,14,0,1,0-28,0C326.12,80.6,331.73,86.45,340.15,86.45Z" fill="#003d74"/><path d="M388.36,42.35h20.71v6.32h.23c4.68-4.68,10.65-8.07,17.2-8.07,8,0,16.73,2.93,20.94,11,6.32-7.6,13.34-11,19.89-11,11,0,23.4,5.5,23.4,22.23v39.54H470V68.44c0-6-3.16-11.23-10.53-11.23-6.55,0-9.36,4.8-9.59,9.36v35.8H429.18V68.44c0-6-3.16-11.23-10.53-11.23-6.9,0-9.59,5.26-9.59,10.06v35.1H388.36Z" fill="#003d74"/><path d="M576.64,76.51,586,95.23s-10.76,8.89-31.7,8.89C527,104.12,502,81.89,502,54.28S526.92,4.09,554.3,4.09C575.24,4.09,586,13,586,13L576.64,31.7a33.51,33.51,0,0,0-19-6c-22.11,0-31.82,15.44-31.82,28.31s9.71,28.43,31.82,28.43A33.51,33.51,0,0,0,576.64,76.51Z" fill="#003d74"/><path d="M594.43,42.35h20.71V51h.23s6.55-10.41,18.37-10.41a24.86,24.86,0,0,1,13.1,3.74l-8.66,17.55s-3.86-3.28-10.76-3.28c-10.76,0-12.28,10.65-12.28,12.17v31.59H594.43Z" fill="#003d74"/><path d="M677.84,40.59c8.07,0,14.74,2.69,19.65,7.49V42.35H718.2v60H697.73V95.58h-.23a26.58,26.58,0,0,1-19.65,8.54C660.29,104.12,648,90,648,72.41S660.29,40.59,677.84,40.59ZM684,86.45c8.07,0,13.92-5.85,13.92-14a14,14,0,1,0-28,0C670,80.6,675.62,86.45,684,86.45Z" fill="#003d74"/><path d="M735.17,29.6C735.28,12,743.71,0,758.68,0a28.65,28.65,0,0,1,17.08,5.38L768.51,20a13.71,13.71,0,0,0-6.2-1.64c-5.26,0-6.43,3.51-6.43,11.82V42.35h13.8V58.14h-13.8v44.22H735.17V58.14h-8.66V42.35h8.66Z" fill="#003d74"/><path d="M778,20h20.71V42.35h12.63V58.14H798.74V77.21c0,5.62,1.4,8.31,4.68,8.31a9.79,9.79,0,0,0,5.15-1.87l5.15,16.73a34.26,34.26,0,0,1-15.21,3.74C782,104.12,778,91.83,778,81.19v-23h-8.66V42.35H778Z" fill="#003d74"/><path d="M129.7,57.75c0-14.36-12.08-26-26.92-26-.4,0-.8,0-1.2,0-.9,0-1.86.14-2.94.3l-.23,0A27.18,27.18,0,0,0,82.5,40.63a2.13,2.13,0,0,1-2.94.19,2,2,0,0,1-.2-2.85A31.24,31.24,0,0,1,95.17,28.6,37.9,37.9,0,0,0,62.49,10.43C45,10.43,29.9,21.91,25.72,38.33a2.16,2.16,0,0,1-2.08,1.54l-.92,0C10.19,39.82,0,49.69,0,61.81s10.19,22,22.72,22c25.64,15.31,52.35,15.94,80.06,0C117.63,83.79,129.7,72.11,129.7,57.75Z" fill="#003d74"/></svg>